<svg viewBox="0 0 620 380" xmlns="http://www.w3.org/2000/svg" font-family="Segoe UI, Arial, sans-serif">
<rect x="0" y="0" width="620" height="380" fill="var(--card-bg, #ffffff)"/>
<line x1="70" y1="310.0" x2="590" y2="310.0" stroke="#e2e5ea" stroke-width="1"/>
<text x="62" y="314.0" text-anchor="end" font-size="11" fill="#5b6472">0.001 s</text>
<line x1="70" y1="240.0" x2="590" y2="240.0" stroke="#e2e5ea" stroke-width="1"/>
<text x="62" y="244.0" text-anchor="end" font-size="11" fill="#5b6472">0.01 s</text>
<line x1="70" y1="170.0" x2="590" y2="170.0" stroke="#e2e5ea" stroke-width="1"/>
<text x="62" y="174.0" text-anchor="end" font-size="11" fill="#5b6472">0.1 s</text>
<line x1="70" y1="100.0" x2="590" y2="100.0" stroke="#e2e5ea" stroke-width="1"/>
<text x="62" y="104.0" text-anchor="end" font-size="11" fill="#5b6472">1 s</text>
<line x1="70" y1="30.0" x2="590" y2="30.0" stroke="#e2e5ea" stroke-width="1"/>
<text x="62" y="34.0" text-anchor="end" font-size="11" fill="#5b6472">10 s</text>
<line x1="70" y1="30" x2="70" y2="310" stroke="#9aa3b2" stroke-width="1"/>
<line x1="70" y1="310" x2="590" y2="310" stroke="#9aa3b2" stroke-width="1"/>
<rect x="105.8" y="268.1" width="58.5" height="41.9" fill="#2f8f7a" rx="3"/>
<text x="135.0" y="260.1" text-anchor="middle" font-size="11" font-weight="600" fill="#2c313a">0.0040s</text>
<text x="135.0" y="328.0" text-anchor="middle" font-size="12" fill="#2c313a">C++</text>
<text x="135.0" y="342.0" text-anchor="middle" font-size="12" fill="#2c313a">sqrt()</text>
<rect x="235.8" y="194.0" width="58.5" height="116.0" fill="#1f6f5c" rx="3"/>
<text x="265.0" y="186.0" text-anchor="middle" font-size="11" font-weight="600" fill="#2c313a">0.0454s</text>
<text x="265.0" y="328.0" text-anchor="middle" font-size="12" fill="#2c313a">C++</text>
<text x="265.0" y="342.0" text-anchor="middle" font-size="12" fill="#2c313a">babilonska</text>
<rect x="365.8" y="174.0" width="58.5" height="136.0" fill="#e07a3f" rx="3"/>
<text x="395.0" y="166.0" text-anchor="middle" font-size="11" font-weight="600" fill="#2c313a">0.0876s</text>
<text x="395.0" y="328.0" text-anchor="middle" font-size="12" fill="#2c313a">Python</text>
<text x="395.0" y="342.0" text-anchor="middle" font-size="12" fill="#2c313a">sqrt()</text>
<rect x="495.8" y="85.1" width="58.5" height="224.9" fill="#c95f26" rx="3"/>
<text x="525.0" y="77.1" text-anchor="middle" font-size="11" font-weight="600" fill="#2c313a">1.6331s</text>
<text x="525.0" y="328.0" text-anchor="middle" font-size="12" fill="#2c313a">Python</text>
<text x="525.0" y="342.0" text-anchor="middle" font-size="12" fill="#2c313a">babilonska</text>
</svg>